<?xml version="1.0" standalone="no"?>
<!DOCTYPE svg PUBLIC "-//W3C//DTD SVG 1.1//EN" "http://www.w3.org/Graphics/SVG/1.1/DTD/svg11.dtd" >
<!--
2016-6-22: Created.
-->
<svg xmlns="http://www.w3.org/2000/svg">
<metadata>
Created by FontForge 20120731 at Wed Jun 22 15:15:40 2016
 By root
Created by root with FontForge 2.0 (http://fontforge.sf.net)
</metadata>
<defs>
<font id="Flaticon" horiz-adv-x="512" >
  <font-face 
    font-family="Flaticon"
    font-weight="500"
    font-stretch="normal"
    units-per-em="512"
    panose-1="2 0 6 3 0 0 0 0 0 0"
    ascent="448"
    descent="-64"
    bbox="-0.0015015 -64 512.001 448"
    underline-thickness="25.6"
    underline-position="-51.2"
    unicode-range="U+0020-F113"
  />
    <missing-glyph />
    <glyph glyph-name="space" unicode=" " horiz-adv-x="200" 
 />
    <glyph glyph-name="uniF10F" unicode="&#xf10f;" 
d="M260.868 204.819c26.1309 26.1279 68.6455 26.1279 94.7734 0s26.1279 -68.6426 0 -94.7705c-26.1289 -26.1279 -68.6426 -26.1279 -94.7734 0c-26.125 26.1279 -26.125 68.6426 0 94.7705zM495.592 49.8477c21.8779 -21.877 21.8779 -57.4727 0.00195312 -79.3516
c-10.5977 -10.5977 -24.6865 -16.4346 -39.6738 -16.4346c-14.9893 0 -29.0801 5.83691 -39.6768 16.4355l-35.248 35.248h-314.46c-14.9922 0 -27.7207 10.9824 -29.916 25.8115l-36.292 244.959c-1.28906 8.69824 1.27539 17.5283 7.01953 24.1885
c5.38281 6.23926 13.0615 9.99316 21.2432 10.4404v36.4316c0 26.6846 22.2754 48.3945 49.6562 48.3945h130.755c12.1484 0 17.8105 4.50488 27.1943 11.9658c11.6738 9.28516 27.6592 21.999 57.7686 21.999h90.4814c30.7236 0 55.7227 -24.9961 55.7227 -55.7217
v-63.0674c8.17969 -0.447266 15.8613 -4.2002 21.2432 -10.4395c5.74414 -6.66016 8.30762 -15.4912 7.01953 -24.1904l-25.7451 -173.762zM65.001 311.191l338.755 -0.000976562v63.0225c0 10.6475 -8.66504 19.3086 -19.3105 19.3086h-90.4814
c-17.3936 0 -24.8223 -5.90625 -35.1006 -14.0811c-11.1357 -8.8584 -24.9951 -19.8828 -49.8613 -19.8828h-130.756c-6.51172 0 -13.2451 -4.48145 -13.2451 -11.9795v-36.3867zM473.944 -8.25488c10.1758 10.1768 10.1758 26.6777 -0.000976562 36.8545l-67.29 67.291
c-4.98047 4.98145 -11.4766 7.51758 -18.0049 7.62305c25.2451 37.6113 21.2666 89.1514 -11.9463 122.365c-37.7422 37.7402 -99.1523 37.7402 -136.891 0c-37.7432 -37.7412 -37.7432 -99.1494 0 -136.891c33.2139 -33.2139 84.752 -37.1914 122.364 -11.9473
c0.105469 -6.52832 2.64258 -13.0234 7.625 -18.0049l67.2891 -67.291c10.1768 -10.1787 26.6777 -10.1787 36.8545 0z" />
    <glyph glyph-name="uniF100" unicode="&#xf100;" 
d="M501.423 135.147c14.0996 -14.0928 14.1035 -37.0371 0.00585938 -51.1436l-30.6445 -30.6582c-4.89551 -4.89941 -10.9521 -8.2207 -17.5488 -9.70996c-1.4873 -6.5293 -4.79395 -12.6094 -9.70703 -17.5205l-27.6934 -27.6924
c-5.10254 -5.10156 -14.8574 -11.2998 -27.3027 -11.2998h-324.261c-14.4805 0 -26.7754 10.6084 -28.8984 24.9326l-35.0557 236.621c-1.24609 8.4043 1.22949 16.9336 6.7793 23.3672c5.19824 6.02734 12.6182 9.65332 20.5195 10.085v35.1904
c0 25.7764 21.5176 46.7471 47.9658 46.7471h126.308c11.7363 0 17.2061 4.35156 26.2695 11.5596c11.2754 8.96875 26.7158 21.25 55.8018 21.25h87.4004c29.6807 0 53.8271 -24.1455 53.8271 -53.8252v-60.9229c7.90137 -0.432617 15.3193 -4.05762 20.5195 -10.085
c5.5498 -6.43359 8.02539 -14.9639 6.7793 -23.3672l-4.18555 -28.25c1.76074 0.18457 3.53809 0.283203 5.33105 0.283203c13.5381 0 26.2783 -5.27246 35.8721 -14.8467c9.60547 -9.60547 14.8818 -22.3447 14.8818 -35.8926
c-0.00390625 -10.3594 -3.15723 -20.3975 -8.9707 -28.8145zM62.79 282.173l327.225 -0.00195312v60.877c0 10.2861 -8.36816 18.6523 -18.6533 18.6523h-87.4004c-16.8027 0 -23.9775 -5.70508 -33.9062 -13.6025c-10.7578 -8.55664 -24.1465 -19.2061 -48.165 -19.2061
h-126.307c-6.28906 0 -12.793 -4.32812 -12.793 -11.5723v-35.1465zM484.77 104.525c2.78809 2.78906 2.78809 7.31055 -0.00390625 10.0967l-31.1074 31.1084l2.50391 1.00977c0.996094 0.402344 2.28418 0.819336 3.42188 1.18848l0.583984 0.19043
c4.28613 1.38574 9.14453 2.95801 12.5684 6.30078c0.135742 0.132812 0.266602 0.271484 0.391602 0.414062l0.78418 0.900391c3.47656 3.98438 5.31445 8.9043 5.31641 14.2324c0 5.79492 -2.25684 11.2451 -6.36035 15.3477
c-4.11426 4.10547 -9.57129 6.36621 -15.3691 6.36621c-5.64258 0 -10.9893 -2.16016 -15.002 -6.03613l-0.305664 -0.288086c-0.0683594 -0.0644531 -0.135742 -0.130859 -0.202148 -0.198242c-3.37793 -3.45996 -5.11621 -8.37012 -6.51367 -12.3213
c-0.456055 -1.28613 -1.02051 -2.8877 -1.52734 -3.99121l-1.07617 -2.34766l-1.71875 1.73535c-0.0517578 0.0527344 -0.104492 0.104492 -0.157227 0.15625l-31.8145 31.8115c-1.33887 1.33887 -3.15625 2.09277 -5.05078 2.09277s-3.71094 -0.753906 -5.05078 -2.09375
l-31.7178 -31.7305c-1.73145 -1.73242 -2.4541 -4.23145 -1.91602 -6.61914c0.539062 -2.38965 2.2627 -4.33594 4.56934 -5.15723l0.414062 -0.146484c2.76367 -0.978516 6.19727 -2.19531 8.48633 -4.20508l0.588867 -0.55957
c2.66504 -2.70703 4.13086 -6.2793 4.13086 -10.0693c0 -3.80566 -1.49316 -7.39453 -4.21094 -10.1113c-2.57422 -2.57812 -6.25098 -4.05762 -10.0879 -4.05762c-3.82422 0 -7.50586 1.47363 -10.041 3.98047l-0.708984 0.71875
c-1.875 2.25098 -2.93848 5.55762 -3.87305 8.46387l-0.0966797 0.298828c-0.761719 2.37109 -2.7002 4.17383 -5.12109 4.75977c-2.41797 0.585938 -4.96875 -0.130859 -6.72852 -1.8916l-29.2539 -29.249c-1.33887 -1.33887 -2.0918 -3.15527 -2.0918 -5.04883
s0.751953 -3.71094 2.09082 -5.05078l85.5664 -85.5752c1.33984 -1.33984 3.15625 -2.0918 5.05078 -2.0918h0.000976562c1.89355 0 3.70898 0.751953 5.04883 2.09082l27.6953 27.6943c1.71777 1.71582 2.44434 4.18555 1.93262 6.55664
c-0.513672 2.37207 -2.19434 4.32324 -4.46582 5.17773c-0.792969 0.296875 -1.58984 0.579102 -2.13965 0.773438c-3.81543 1.35449 -8.13867 2.88867 -10.9629 5.70508c-6.85742 6.87793 -6.86523 18.0527 -0.0253906 24.9014
c3.34668 3.33691 7.77344 5.1748 12.4639 5.1748c4.68457 0 9.08984 -1.81543 12.3867 -5.09766l0.900391 -0.901367c2.28711 -2.79688 3.56055 -6.79199 4.68945 -10.3291c0.250977 -0.78418 0.470703 -1.45215 0.666992 -2.01855
c0.803711 -2.32715 2.74902 -4.07715 5.14844 -4.62988c2.39844 -0.552734 4.91309 0.169922 6.65527 1.91113z" />
    <glyph glyph-name="uniF105" unicode="&#xf105;" 
d="M419.825 172.53c3.10059 0 5.67383 -2.26562 6.16602 -5.22754h-25.3779c0.492188 2.96094 3.06543 5.22754 6.16602 5.22754h13.0459zM390.846 109.363c3.97559 0 7.19922 -3.22461 7.19922 -7.20215v-63.4277c0 -3.97656 -3.22266 -7.19922 -7.19922 -7.19922
c-3.97754 0 -7.20117 3.22168 -7.20117 7.19922v63.4277c0 3.97754 3.22461 7.20215 7.20117 7.20215zM467.932 196.989c25.0283 -4.55859 44.0684 -26.5059 44.0693 -52.8359v-12.3418c0 -12.0996 -6.0498 -22.8154 -15.2832 -29.2783v-88.5488
c0 -22.9902 -18.7021 -41.6924 -41.6914 -41.6924h-87.4287c-9.04004 0 -17.4111 2.90234 -24.249 7.80859h-275.65c-15.2539 0 -28.2031 11.1738 -30.4385 26.2627l-36.9258 249.239c-1.3125 8.85156 1.29492 17.8359 7.14062 24.6123
c5.47656 6.34961 13.291 10.1689 21.6143 10.6221v37.0684c0 27.1514 22.665 49.2412 50.5234 49.2412h133.043c12.3613 0 18.123 4.58301 27.6699 12.1738c11.876 9.44727 28.1406 22.3838 58.7773 22.3838h92.0605c31.2637 0 56.6973 -25.4326 56.6973 -56.6943v-64.1699
c8.32324 -0.454102 16.1367 -4.27441 21.6143 -10.623c5.8457 -6.77637 8.45312 -15.7598 7.14062 -24.6113zM66.1377 290.886h344.672v64.124c0 10.835 -8.81445 19.6465 -19.6475 19.6465h-92.0605c-17.6982 0 -25.2568 -6.00977 -35.7148 -14.3291
c-11.3311 -9.01172 -25.4336 -20.2285 -50.7324 -20.2285h-133.042c-6.62305 0 -13.4746 -4.56055 -13.4746 -12.1914v-37.0215zM483.417 131.815l-0.000976562 12.3418c0 12.7627 -10.3809 23.1455 -23.1426 23.1455h-22.2402
c-0.536133 9.58008 -8.49707 17.209 -18.209 17.209h-13.0459c-9.71191 0 -17.6729 -7.62891 -18.209 -17.209h-22.2402c-12.7617 0 -23.1426 -10.3828 -23.1426 -23.1455v-12.3418c0 -2.83984 2.30273 -5.14258 5.1416 -5.14258h10.1406v-112.686
c0 -6.1416 4.97754 -11.1191 11.1182 -11.1191h87.4297c6.14062 0 11.1182 4.97852 11.1182 11.1191v112.686h10.1406c2.83887 0 5.1416 2.30273 5.1416 5.14258zM435.761 109.363c3.97559 0 7.19922 -3.22461 7.19922 -7.20215v-63.4277
c0 -3.97656 -3.22363 -7.19922 -7.19922 -7.19922c-3.97754 0 -7.20117 3.22168 -7.20117 7.19922v63.4277c0 3.97754 3.22363 7.20215 7.20117 7.20215z" />
    <glyph glyph-name="uniF10E" unicode="&#xf10e;" 
d="M453.901 205.396c34.7783 -20.9062 58.0986 -59.0068 58.0986 -102.457c0 -64.9082 -52.0342 -117.89 -116.579 -119.425c-0.015625 0 -0.0283203 -0.000976562 -0.0429688 -0.000976562h-5.56348h-324.41c-14.7373 0 -27.249 10.7949 -29.4082 25.373l-35.6758 240.788
c-1.2666 8.55176 1.25391 17.2314 6.89941 23.7783c5.29199 6.13281 12.8408 9.82324 20.8818 10.2627v35.8125c0 26.2305 21.8984 47.5703 48.8135 47.5703h128.532c11.9414 0 17.5088 4.42773 26.7324 11.7627c11.4736 9.12695 27.1865 21.625 56.7842 21.625h88.9414
c30.2021 0 54.7754 -24.5713 54.7754 -54.7744v-61.9951c8.04102 -0.439453 15.5908 -4.12891 20.8818 -10.2627c5.64746 -6.5459 8.16602 -15.2266 6.89941 -23.7783zM63.8955 283.762l332.99 -0.00195312v61.9502c0 10.4668 -8.51758 18.9805 -18.9814 18.9805h-88.9414
c-17.0977 0 -24.3994 -5.80566 -34.5039 -13.8418c-10.9463 -8.70801 -24.5703 -19.5449 -49.0127 -19.5449h-128.531c-6.40039 0 -13.0195 -4.4043 -13.0195 -11.7754v-35.7666zM392.115 12.1543c49.6631 0 89.9209 40.2607 89.9209 89.9219
c0 49.6621 -40.2578 89.9229 -89.9209 89.9229s-89.9219 -40.2607 -89.9219 -89.9229c0 -49.6611 40.2588 -89.9219 89.9219 -89.9219zM443.324 133.219c2.30762 -2.30664 2.30762 -6.04688 0 -8.35352l-23.8506 -23.8496l23.8506 -23.8496
c2.30762 -2.30664 2.30762 -6.04688 0 -8.35352l-18.3799 -18.3799c-1.15234 -1.1543 -2.66602 -1.73145 -4.17676 -1.73145c-1.51172 0 -3.02344 0.577148 -4.17676 1.73145l-23.8506 23.8506l-23.8496 -23.8506c-1.15234 -1.1543 -2.66602 -1.73145 -4.17676 -1.73145
s-3.02344 0.577148 -4.17676 1.73145l-18.3799 18.3799c-2.30762 2.30664 -2.30762 6.04688 0 8.35352l23.8506 23.8496l-23.8506 23.8496c-2.30762 2.30664 -2.30762 6.04688 0 8.35352l18.3799 18.3799c2.30566 2.30762 6.04785 2.30762 8.35352 0l23.8496 -23.8506
l23.8506 23.8506c2.30566 2.30762 6.04785 2.30762 8.35352 0z" />
    <glyph glyph-name="uniF109" unicode="&#xf109;" 
d="M389.624 54.3594l9.04785 9.0459c0.414062 -4.72461 -1.25293 -9.44043 -4.68066 -12.8691l-24.0205 -24.0205c-6.32227 -6.32129 -16.6094 -6.32129 -22.9297 0l-0.545898 0.545898c-6.32129 6.32129 -6.32129 16.6094 0 22.9297l24.0205 24.0205
c3.42871 3.42871 8.14453 5.0957 12.8691 4.68066l-9.04785 -9.04785c-4.21387 -4.21289 -4.21387 -11.0703 0 -15.2852c4.21582 -4.21582 11.0732 -4.21582 15.2871 0zM455.682 136.248l0.544922 -0.544922c6.32031 -6.32227 6.32031 -16.6084 0 -22.9297
l-24.0215 -24.0205c-3.42773 -3.42871 -8.14453 -5.09375 -12.8672 -4.67969l9.0459 9.04785c4.21582 4.21387 4.21582 11.0703 0 15.2861c-4.21387 4.21484 -11.0703 4.21484 -15.2842 0l-9.04785 -9.04785c-0.414062 4.72363 1.25098 9.43945 4.67969 12.8672
l24.0205 24.0215c6.32227 6.32129 16.6094 6.32129 22.9297 0zM492.403 171.648c26.1338 -26.1318 26.1338 -68.6895 -0.0214844 -94.8457l-24.0205 -24.0195c-6.70703 -6.70801 -14.5957 -11.8184 -23.1963 -15.1387c-3.34473 -8.59277 -8.4375 -16.4961 -15.0186 -23.0771
l-24.0186 -24.0195c-12.6602 -12.6602 -29.5059 -19.6309 -47.4346 -19.6309s-34.7744 6.9707 -47.4326 19.6279l-0.547852 0.547852c-2.84082 2.8418 -5.35449 5.8877 -7.58008 9.07422h-238.365c-14.5938 0 -26.9834 10.6904 -29.1211 25.126l-35.3291 238.445
c-1.25488 8.46875 1.24121 17.0645 6.83203 23.5469c5.24121 6.07324 12.7158 9.72754 20.6787 10.1621v35.4639c0 25.9756 21.6846 47.1074 48.3389 47.1074h127.281c11.8252 0 17.3379 4.38477 26.4717 11.6484c11.3623 9.03809 26.9219 21.4141 56.2314 21.4141h88.0762
c29.9082 0 54.2422 -24.332 54.2422 -54.2402v-61.3926c7.96289 -0.43457 15.4375 -4.08887 20.6777 -10.1621c5.59277 -6.48145 8.08789 -15.0781 6.83301 -23.5459l-10.6553 -71.916c17.583 -0.235352 34.0693 -7.16699 46.5107 -19.6055zM63.2734 297.493h329.75v61.3477
c0 10.3662 -8.43457 18.7959 -18.7969 18.7959h-88.0762c-16.9316 0 -24.1621 -5.75 -34.168 -13.708c-10.8398 -8.62305 -24.3311 -19.3535 -48.5352 -19.3535h-127.28c-6.33984 0 -12.8936 -4.36328 -12.8936 -11.6631v-35.4189zM471.513 97.4873
c14.751 14.751 14.751 38.75 0.000976562 53.502l-0.544922 0.545898c-14.752 14.749 -38.751 14.749 -53.502 0l-24.0215 -24.0215c-7.19727 -7.19824 -11.1602 -16.9971 -11.0498 -27.1631c-10.165 0.110352 -19.9648 -3.85352 -27.1641 -11.0508l-24.0215 -24.0205
c-14.75 -14.751 -14.75 -38.752 0 -53.502l0.546875 -0.546875c14.75 -14.749 38.751 -14.749 53.501 0l24.0186 24.0215c7.19922 7.19922 11.1631 16.9971 11.0518 27.1641c10.167 -0.110352 19.9648 3.85254 27.1641 11.0498z" />
    <glyph glyph-name="uniF10D" unicode="&#xf10d;" 
d="M453.901 205.398c34.7783 -20.9072 58.0986 -59.0088 58.0986 -102.459c0 -64.9072 -52.0342 -117.889 -116.579 -119.424c-0.015625 0 -0.0283203 -0.00195312 -0.0429688 -0.00195312h-5.56348h-324.41c-14.7373 0 -27.249 10.7949 -29.4082 25.373l-35.6758 240.789
c-1.2666 8.55078 1.25391 17.2305 6.89941 23.7773c5.29199 6.13477 12.8408 9.82422 20.8818 10.2627v35.8125c0 26.2295 21.8984 47.5713 48.8135 47.5713h128.532c11.9414 0 17.5088 4.42676 26.7324 11.7617c11.4736 9.12695 27.1865 21.625 56.7842 21.625h88.9414
c30.2021 0 54.7754 -24.5713 54.7754 -54.7725v-61.9961c8.04102 -0.439453 15.5908 -4.12891 20.8818 -10.2617c5.64746 -6.54688 8.16602 -15.2275 6.89941 -23.7793zM63.8955 283.763h332.99v61.9512c0 10.4648 -8.51758 18.9795 -18.9814 18.9795h-88.9414
c-17.0977 0 -24.3994 -5.80664 -34.5039 -13.8438c-10.9463 -8.70703 -24.5703 -19.5449 -49.0127 -19.5449h-128.531c-6.40039 0 -13.0195 -4.40527 -13.0195 -11.7764v-35.7656zM392.115 12.1553c49.6631 0 89.9209 40.2607 89.9209 89.9229
c0 49.6611 -40.2578 89.9219 -89.9209 89.9219s-89.9219 -40.2607 -89.9219 -89.9219c0 -49.6631 40.2588 -89.9229 89.9219 -89.9229zM445.373 119.917c3.2627 0.00292969 5.90918 -2.64453 5.90723 -5.90625v-25.9941c0 -3.26172 -2.64355 -5.90723 -5.90723 -5.90625
h-105.266c-1.63086 -0.000976562 -3.10938 0.662109 -4.17676 1.72949c-1.06836 1.06836 -1.73145 2.54688 -1.72949 4.17676v25.9941c-0.00195312 3.26367 2.64258 5.90723 5.90625 5.90625h105.266z" />
    <glyph glyph-name="uniF106" unicode="&#xf106;" 
d="M506.815 107.214c7.87109 -15.083 6.71484 -33.1328 -3.02539 -47.0986l-56.9521 -81.6387c-8.51367 -12.1982 -22.4727 -19.4795 -37.3418 -19.4795c-14.8682 0 -28.8232 7.28027 -37.335 19.4746l-6.26465 8.98047h-297.266
c-15.4629 0 -28.5928 11.3291 -30.8584 26.624l-37.4355 252.675c-1.3291 8.97363 1.31348 18.082 7.23926 24.9502c5.55273 6.43652 13.4746 10.3076 21.9131 10.7695v37.5791c0 27.5244 22.9766 49.918 51.2197 49.918h134.876c12.5312 0 18.373 4.64648 28.0518 12.3438
c12.04 9.57617 28.5273 22.6924 59.5869 22.6924h93.332c31.6924 0 57.4766 -25.7861 57.4766 -57.4795v-65.0537c8.44141 -0.461914 16.3594 -4.33301 21.9131 -10.7695c5.92578 -6.86816 8.56934 -15.9766 7.24023 -24.9502l-12.2246 -82.5059v-52.7773
c15.2109 -1.49512 28.6836 -10.502 35.8545 -24.2539zM67.0488 302.518h349.424v65.0068c0 10.9834 -8.93457 19.9189 -19.917 19.9189h-93.332c-17.9424 0 -25.6035 -6.09375 -36.207 -14.5273c-11.4873 -9.13867 -25.7832 -20.5098 -51.4316 -20.5098h-134.876
c-6.71582 0 -13.6602 -4.62109 -13.6602 -12.3564v-37.5322zM480.434 76.3945c3.6377 5.21582 4.07617 12.0234 1.13477 17.6611c-2.94434 5.63965 -8.77637 9.17676 -15.1387 9.17676h-23.9404v70.7314c0 9.43066 -7.64648 17.0723 -17.0742 17.0723h-31.8691
c-9.42773 0 -17.0732 -7.6416 -17.0732 -17.0723v-70.7295h-23.9434c-6.36133 0 -12.1934 -3.53809 -15.1357 -9.17676c-2.94238 -5.63965 -2.50586 -12.4473 1.13281 -17.6631l56.9502 -81.6387c3.19531 -4.57715 8.4248 -7.30371 14.002 -7.30371
c5.58203 0 10.8105 2.72656 14.0049 7.30371z" />
    <glyph glyph-name="uniF10C" unicode="&#xf10c;" 
d="M507.573 168.287c5.15137 -10.6855 5.83105 -22.7383 1.90723 -33.9375l-12.377 -35.4248c4.84668 -7.11133 7.68555 -15.6963 7.68555 -24.9316c0 -62.0791 -50.5068 -112.587 -112.589 -112.587c-23.4941 0 -46.458 7.40723 -65.4658 20.9902
c-5.31055 -2.22168 -11.1055 -3.43066 -17.1025 -3.43066c-4.98633 0 -9.90723 0.833984 -14.6289 2.48242c-4.02051 1.40625 -7.75098 3.35156 -11.1289 5.74902h-215.583c-15.3877 0 -28.4531 11.2715 -30.708 26.4932l-37.249 251.427
c-1.32324 8.92969 1.30664 17.9941 7.2041 24.8281c5.52539 6.40332 13.4072 10.2568 21.8047 10.7168v37.3945c0 27.3887 22.8652 49.6699 50.9678 49.6699h134.212c12.4697 0 18.2822 4.62402 27.9131 12.2842c11.9814 9.53027 28.3887 22.5801 59.2939 22.5801h92.8701
c31.5371 0 57.1953 -25.6582 57.1953 -57.1943v-64.7344c8.39648 -0.459961 16.2793 -4.31348 21.8037 -10.7168c5.89746 -6.83398 8.52734 -15.8984 7.20508 -24.8281l-10.6377 -71.7969c4.10547 -0.238281 8.14941 -1.03613 12.0557 -2.39941
c11.2051 -3.91895 20.2041 -11.9551 25.3516 -22.6338zM66.7188 300.709l347.7 0.000976562v64.6875c0 10.9287 -8.89355 19.8174 -19.8203 19.8174h-92.8711c-17.8525 0 -25.4766 -6.0625 -36.0273 -14.4521c-11.4297 -9.09375 -25.6553 -20.4092 -51.1777 -20.4092
h-134.211c-6.68262 0 -13.5928 -4.60059 -13.5928 -12.2959v-37.3486zM393.438 -7.74902c45.0781 0 81.7471 36.6719 81.7471 81.7441c0 7.48145 -6.06738 13.5439 -13.5488 13.5439c-7.48242 0 -13.5508 -6.0625 -13.5508 -13.5439
c0 -30.1338 -24.5098 -54.6484 -54.6475 -54.6484c-17.6592 0 -33.7607 8.56836 -43.8438 22.0566l12.0361 -4.2041c7.06543 -2.46973 14.7969 1.25195 17.2627 8.31738c2.46973 7.06445 -1.25586 14.792 -8.31836 17.2568l-40.9326 14.3066
c-1.47949 0.512695 -2.98438 0.762695 -4.46777 0.762695c-5.59863 0 -10.8389 -3.50293 -12.791 -9.08594l-14.2988 -40.9307c-2.47168 -7.05957 1.25391 -14.7871 8.31934 -17.2568c7.06152 -2.46484 14.792 1.25879 17.2568 8.32422l2.85742 8.17871
c4.20703 -5.99121 9.21484 -11.4443 14.9238 -16.1494c14.585 -12.043 33.0547 -18.6719 51.9961 -18.6719zM481.608 144.541c2.47168 7.06348 -1.25488 14.791 -8.31934 17.2598c-7.0625 2.4668 -14.793 -1.25781 -17.2568 -8.32227l-2.85645 -8.18066
c-4.20703 5.99023 -9.21582 11.4434 -14.9248 16.1514c-14.585 12.041 -33.0537 18.6689 -51.9971 18.6689c-45.0762 0 -81.7461 -36.6689 -81.7461 -81.7412c0 -7.4834 6.06641 -13.5459 13.5488 -13.5459c7.48145 0 13.5498 6.0625 13.5498 13.5459
c0 30.1309 24.5098 54.6455 54.6455 54.6455c17.6611 0 33.7627 -8.56738 43.8457 -22.0596l-12.0352 4.20703c-7.06445 2.46973 -14.7969 -1.25195 -17.2617 -8.31738c-2.47168 -7.06445 1.25293 -14.7939 8.31738 -17.2568l40.9307 -14.3086
c1.48047 -0.510742 2.98633 -0.760742 4.46777 -0.760742c5.60059 0 10.8398 3.50391 12.791 9.08594z" />
    <glyph glyph-name="uniF112" unicode="&#xf112;" 
d="M503.568 117.562c10.0029 -14.3389 11.1924 -32.877 3.10449 -48.375c-7.35742 -14.1133 -21.1904 -23.3613 -36.8115 -24.8975v-43.6396c0 -25.7803 -20.9727 -46.752 -46.752 -46.752h-32.7256c-18.6787 0 -34.8271 11.0117 -42.3086 26.8809h-277.595
c-15.8789 0 -29.3652 11.6348 -31.6895 27.3428l-38.4443 259.47c-1.36426 9.21582 1.35059 18.5684 7.43457 25.623c5.70215 6.60938 13.834 10.5869 22.5039 11.0596v38.5879c0 28.2666 23.5928 51.2627 52.5967 51.2627h138.502
c12.8701 0 18.8691 4.77051 28.8076 12.6758c12.3623 9.83398 29.2979 23.3018 61.1904 23.3018h95.8408c32.5459 0 59.0254 -26.4766 59.0254 -59.0225v-66.8057c8.66602 -0.472656 16.7998 -4.4502 22.502 -11.0596c6.08594 -7.05469 8.80176 -16.4092 7.43652 -25.624
l-17.041 -115.011zM68.8545 304.325h358.819v66.7539c0 11.2773 -9.1748 20.4531 -20.4531 20.4531h-95.8398c-18.4229 0 -26.2949 -6.25781 -37.1797 -14.9189c-11.7959 -9.38281 -26.4805 -21.0586 -52.8184 -21.0586h-138.503
c-6.89453 0 -14.0254 -4.74902 -14.0254 -12.6934v-38.5361zM479.602 82.5254c3.02246 5.79004 2.57129 12.7822 -1.16211 18.1377l-58.4824 83.833c-3.28125 4.70312 -8.64941 7.50293 -14.3779 7.50293c-5.73535 0 -11.1025 -2.7998 -14.3809 -7.50293l-58.4854 -83.832
c-3.73535 -5.35547 -4.18555 -12.3477 -1.16504 -18.1377c3.02344 -5.79199 9.01465 -9.42285 15.5449 -9.42285h24.5859v-72.6357c0 -9.68359 7.85059 -17.5312 17.5352 -17.5312h32.7227c9.68359 0 17.5361 7.84766 17.5361 17.5312v72.6338h24.583
c6.5332 0 12.5234 3.63184 15.5459 9.42383z" />
    <glyph glyph-name="uniF113" unicode="&#xf113;" 
d="M239.827 178.434c0 6.84082 5.5498 12.3887 12.3877 12.3896h7.56836c6.83984 0 12.3877 -5.54883 12.3877 -12.3896c0 -6.83984 -5.54785 -12.3877 -12.3877 -12.3877h-7.56836c-6.83789 0 -12.3877 5.54785 -12.3877 12.3877zM503.978 282.509
c6.27539 -7.27441 9.07422 -16.9189 7.66699 -26.4238l-39.6406 -267.555c-2.40039 -16.1982 -16.3027 -28.1934 -32.6777 -28.1934h-366.652c-16.375 0 -30.2764 11.9951 -32.6758 28.1934l-39.6396 267.557c-1.4082 9.50098 1.39062 19.1455 7.66602 26.4199
c5.87793 6.81641 14.2676 10.916 23.2021 11.4033v39.793c0 29.1475 24.3311 52.8594 54.2363 52.8594h142.821c13.2695 0 19.4541 4.91895 29.7031 13.0693c12.749 10.1416 30.208 24.0283 63.0967 24.0283h98.8271c33.5605 0 60.8633 -27.3027 60.8633 -60.8613v-68.8867
c8.93555 -0.489258 17.3242 -4.58887 23.2031 -11.4033zM212.458 27.3564c0 -3.15234 2.55273 -5.7041 5.7041 -5.7041h42.5918c3.15039 0 5.7041 2.55371 5.7041 5.7041v13.6904c0 3.15039 -2.55469 5.7041 -5.7041 5.7041h-42.5918
c-3.15137 0 -5.7041 -2.55469 -5.7041 -5.7041v-13.6904zM256 237.524c-5.61133 0 -10.1582 4.55176 -10.1602 10.1592v14.0703h-7.96875c-6.05859 0 -11.0869 -4.67871 -11.5215 -10.7217l-6.42285 -89.2705c-0.230469 -3.2002 0.880859 -6.35156 3.06641 -8.69824
c2.18457 -2.35059 5.24707 -3.68457 8.45605 -3.68457h49.1006c3.20996 0 6.27148 1.33398 8.45605 3.68457c2.18555 2.34668 3.2959 5.49805 3.06641 8.69824l-6.42383 89.2705c-0.43457 6.04297 -5.46191 10.7217 -11.5215 10.7217h-7.96875v-14.0703
c0 -5.60742 -4.54688 -10.1592 -10.1582 -10.1592zM260.754 126.608h-42.5918c-3.15137 0 -5.7041 -2.55469 -5.7041 -5.7041v-13.6914c0 -3.15039 2.55273 -5.7041 5.7041 -5.7041h42.5918c3.15039 0 5.7041 2.55469 5.7041 5.7041v13.6914
c0 3.15039 -2.55469 5.7041 -5.7041 5.7041zM299.542 -12.1934v13.6904c0 3.15137 -2.55469 5.70508 -5.7041 5.70508h-42.5918c-3.14941 0 -5.7041 -2.55469 -5.7041 -5.70508v-13.6904c0 -3.15039 2.55469 -5.7041 5.7041 -5.7041h42.5918
c3.15137 0 5.7041 2.55469 5.7041 5.7041zM299.542 67.665v13.6904c0 3.15234 -2.55469 5.70508 -5.7041 5.70508h-42.5918c-3.14941 0 -5.7041 -2.55469 -5.7041 -5.70508v-13.6904c0 -3.15137 2.55469 -5.7041 5.7041 -5.7041h42.5918
c3.15137 0 5.7041 2.55371 5.7041 5.7041zM441.001 293.963l0.00195312 68.8359c0 11.6289 -9.46289 21.0898 -21.0918 21.0898h-98.8271c-18.999 0 -27.1123 -6.45117 -38.3389 -15.3828c-12.1641 -9.67383 -27.3027 -21.7168 -54.4609 -21.7168h-142.819
c-7.11133 0 -14.4658 -4.89551 -14.4658 -13.0859v-39.7402h370.002z" />
    <glyph glyph-name="uniF108" unicode="&#xf108;" 
d="M384.139 175.579c40.4395 0 73.3389 -32.8965 73.3398 -73.3379c0 -40.4424 -32.9004 -73.3398 -73.3398 -73.3398c-40.4375 0 -73.3398 32.8984 -73.3398 73.3398s32.9033 73.3379 73.3398 73.3379zM384.141 44.3672c6.84082 0 12.3838 5.54102 12.3828 12.377
c0 6.8418 -5.54297 12.3848 -12.3828 12.3848c-6.83691 0 -12.3789 -5.54297 -12.3789 -12.3848c0 -6.83496 5.54199 -12.377 12.3789 -12.377zM398.614 144.484c0.0507812 0.706055 0.0595703 1.50098 0 2.22559c-0.614258 7.99414 -7.5918 13.9746 -15.584 13.3604
c-7.99414 -0.614258 -13.9766 -7.5918 -13.3613 -15.5859l4.57129 -59.3936c0.362305 -4.80078 4.18457 -8.75488 9.14062 -9.14258c5.46875 -0.416992 10.2451 3.67676 10.6641 9.14258zM454.203 209.533c34.791 -22.9658 57.7969 -62.4053 57.7969 -107.124
c0 -70.7314 -57.543 -128.276 -128.271 -128.276c-23.7734 0 -46.0518 6.50879 -65.1621 17.8271h-253.017c-14.7695 0 -27.3096 10.8193 -29.4727 25.4297l-35.7559 241.326c-1.26953 8.57129 1.25586 17.2705 6.91504 23.8311
c5.30371 6.14746 12.8691 9.8457 20.9287 10.2861v35.8926c0 26.2891 21.9463 47.6768 48.9219 47.6768h128.818c11.9688 0 17.5479 4.43848 26.793 11.7891c11.499 9.14746 27.2471 21.6738 56.9102 21.6738h89.1406c30.2705 0 54.8975 -24.627 54.8975 -54.8965v-62.1328
c8.05957 -0.442383 15.625 -4.13965 20.9287 -10.2871c5.66016 -6.55957 8.18457 -15.2598 6.91504 -23.8301zM64.0381 292.881l333.735 -0.000976562v62.0889c0 10.4912 -8.53613 19.0225 -19.0244 19.0225h-89.1406c-17.1357 0 -24.4531 -5.81836 -34.5801 -13.873
c-10.9707 -8.72656 -24.625 -19.5879 -49.123 -19.5879h-128.818c-6.41504 0 -13.0488 -4.41602 -13.0488 -11.8037v-35.8457zM384.139 3.56934c54.4072 0 98.6699 44.2646 98.6699 98.6729c0 54.4072 -44.2627 98.6719 -98.6699 98.6719
c-54.4023 0 -98.667 -44.2646 -98.667 -98.6719c0 -54.4082 44.2646 -98.6729 98.667 -98.6729z" />
    <glyph glyph-name="uniF103" unicode="&#xf103;" 
d="M495.339 157.924c10.2607 -9.24023 16.6611 -22.6084 16.6611 -37.166v-98.6436c0 -27.5645 -22.4238 -49.9893 -49.9873 -49.9893h-107.753c-10.3076 0 -19.8936 3.13574 -27.8594 8.50391h-258.758c-15.2412 0 -28.1816 11.1641 -30.4141 26.2412l-36.8965 249.032
c-1.30957 8.8418 1.29688 17.8203 7.13672 24.5918c5.47266 6.34375 13.2793 10.1602 21.5957 10.6133v37.0371c0 27.1279 22.6465 49.1992 50.4834 49.1992h132.931c12.3516 0 18.1074 4.57812 27.6475 12.165c11.8672 9.43945 28.1182 22.3643 58.7285 22.3643h91.9863
c31.2354 0 56.6494 -25.4111 56.6494 -56.6475v-64.1172c8.31641 -0.454102 16.125 -4.27051 21.5967 -10.6133c5.84082 -6.77051 8.44629 -15.75 7.13574 -24.5938l-5.35059 -36.1143c15.1299 -15.6953 24.4668 -37.0117 24.4668 -60.4814v-1.38184zM66.082 291.156
l344.389 -0.000976562v64.0703c0 10.8242 -8.80762 19.6309 -19.6318 19.6309h-91.9854c-17.6826 0 -25.2344 -6.00488 -35.6846 -14.3174c-11.3213 -9.00488 -25.4111 -20.2148 -50.6904 -20.2148h-132.931c-6.61914 0 -13.4658 -4.55664 -13.4658 -12.1787v-36.9893z
M483.896 103.445v14.2578c0 9.79492 -7.24023 17.8926 -16.6611 19.2422v19.3057c0 31.2451 -25.416 56.6602 -56.6553 56.6602c-31.2373 0 -56.6543 -25.415 -56.6543 -56.6602v-19.3066c-9.4209 -1.34961 -16.6611 -9.44824 -16.6611 -19.2432v-98.6426
c0 -10.7393 8.70117 -19.4414 19.4385 -19.4414h107.755c10.7373 0 19.4385 8.70215 19.4385 19.4414v7.49414h-33.0459c-7.8252 0 -14.165 6.3418 -14.165 14.1641c0 7.82715 6.33984 14.168 14.165 14.168h33.0459v20.2363h-33.0459
c-7.8252 0 -14.165 6.3418 -14.165 14.1621c0 7.81934 6.33984 14.1621 14.165 14.1621h33.0459zM410.579 185.134c15.9287 0 28.8818 -12.9551 28.8818 -28.8828v-19.1045h-57.7627v19.1045c0 15.9277 12.9531 28.8828 28.8809 28.8828z" />
    <glyph glyph-name="uniF111" unicode="&#xf111;" 
d="M509.667 111.428c5.56152 -17.1475 1.01074 -35.5635 -11.8564 -48.1143l-18.6572 -18.1855l4.40137 -25.6709c3.04883 -17.7178 -4.10156 -35.3018 -18.6553 -45.875c-8.06055 -5.85742 -17.5967 -8.95605 -27.5703 -8.95605h-365.999
c-16.0723 0 -29.7178 11.7725 -32.0732 27.6709l-38.9062 262.603c-1.38184 9.32617 1.36719 18.793 7.52441 25.9326c5.77148 6.68848 14.0049 10.7119 22.7734 11.1914v39.0566c0 28.6064 23.8799 51.8799 53.2344 51.8799h140.172
c13.0244 0 19.0957 4.8291 29.1553 12.8281c12.5127 9.9541 29.6494 23.584 61.9277 23.584h96.998c32.9404 0 59.7373 -26.7979 59.7373 -59.7363v-67.6104c8.77051 -0.479492 17.0029 -4.50391 22.7734 -11.1924c6.16016 -7.13965 8.90625 -16.6064 7.52441 -25.9326
l-17.1201 -115.556c11.541 -5.39648 20.5078 -15.3271 24.6162 -27.917zM69.6826 292.074l363.155 -0.00195312v67.5625c0 11.415 -9.28906 20.7002 -20.7021 20.7002h-96.998c-18.6465 0 -26.6074 -6.33203 -37.6289 -15.0967
c-11.9375 -9.49609 -26.7959 -21.3145 -53.4521 -21.3145h-140.174c-6.97852 0 -14.2002 -4.80371 -14.2002 -12.8428v-39.0068zM481.332 86.3779c4.00293 3.90527 5.44531 9.74219 3.72461 15.0615c-1.73438 5.31641 -6.33105 9.19238 -11.8604 9.99609l-42.5342 6.18066
l-19.0205 38.541c-2.47949 5.0166 -7.58887 8.19141 -13.1777 8.19141c-5.59277 0 -10.7012 -3.17676 -13.1777 -8.19141l-19.0215 -38.541l-42.5342 -6.18066c-5.52832 -0.802734 -10.126 -4.67969 -11.8604 -9.99609
c-1.72656 -5.31934 -0.283203 -11.1572 3.71973 -15.0615l30.7812 -30.001l-7.26562 -42.3623c-0.947266 -5.51074 1.31543 -11.083 5.84082 -14.3682c4.52539 -3.28711 10.5195 -3.71875 15.4756 -1.11719l38.04 19.998l38.041 -19.998
c2.15234 -1.13184 4.49805 -1.68945 6.83887 -1.68945c3.04199 0 6.0752 0.946289 8.63672 2.80664c4.52148 3.28516 6.78613 8.85742 5.83789 14.3682l-7.26367 42.3623z" />
    <glyph glyph-name="uniF110" unicode="&#xf110;" 
d="M323.335 125.733c-3.30371 10.5732 -5.62402 20.9336 -6.74219 30.0859c31.3271 6.76172 57.9268 18.4463 70.126 24.3311v-148.801c-5.94727 2.80176 -12.375 7.66309 -18.749 14.1953c-9.29883 9.53418 -18.2637 22.2285 -26.6436 37.7324
c-7.32129 13.5469 -13.5439 28.2285 -17.9912 42.4561zM476.386 205.869c21.3271 -3.88379 36.6221 -23.1553 35.5625 -44.8271c-1.50586 -30.8447 -13.0469 -68.2959 -31.666 -102.743c-22.9824 -42.5176 -50.8828 -69.8066 -80.6816 -78.9131
c-4.16113 -1.2627 -8.41113 -1.89551 -12.6885 -1.89551c-4.27344 0 -8.51953 0.629883 -12.6211 1.87402c-7.43457 2.27148 -14.7461 5.6709 -21.8906 10.1475h-286.994c-14.7373 0 -27.249 10.7959 -29.4092 25.374l-35.6748 240.803
c-1.26758 8.5498 1.25195 17.2324 6.89941 23.7793c5.29102 6.13477 12.8408 9.82422 20.8828 10.2627v35.8145c0 26.2324 21.8984 47.5742 48.8145 47.5742h128.541c11.9434 0 17.5098 4.42676 26.7334 11.7627c11.4756 9.12793 27.1885 21.626 56.7891 21.626h88.9453
c30.2061 0 54.7783 -24.5713 54.7783 -54.7754v-61.999c8.04199 -0.439453 15.5908 -4.12988 20.8838 -10.2637c5.64746 -6.54688 8.16602 -15.2285 6.89844 -23.7812l-6.59082 -44.4834c7.07324 -2.04492 14.6279 -3.90039 22.4883 -5.33594zM63.9004 289.779
l333.011 -0.000976562v61.9541c0 10.4658 -8.5166 18.9814 -18.9834 18.9814h-88.9453c-17.0996 0 -24.4023 -5.80566 -34.5068 -13.8447c-10.9473 -8.70703 -24.5732 -19.5459 -49.0156 -19.5459h-128.54c-6.40039 0 -13.0195 -4.40625 -13.0195 -11.7773v-35.7666z
M484.021 162.485c0.337891 6.92676 -4.54785 13.084 -11.3652 14.3252c-37.5967 6.86523 -69.0391 22.1934 -77.7803 26.7285c-3.92871 2.03613 -8.84473 2.03613 -12.7754 0c-8.74121 -4.53516 -40.1846 -19.8623 -77.7783 -26.7285
c-6.81738 -1.24121 -11.7061 -7.39844 -11.3652 -14.3232c1.27832 -26.2031 11.8008 -59.8994 28.1484 -90.1406c18.9375 -35.0371 41.4277 -58.0195 63.3311 -64.7139c1.32031 -0.399414 2.68359 -0.603516 4.05176 -0.603516c1.36719 0 2.73047 0.204102 4.05469 0.605469
c21.9014 6.69238 44.3906 29.6748 63.3301 64.7109c16.3467 30.2402 26.8701 63.9375 28.1484 90.1396z" />
    <glyph glyph-name="uniF102" unicode="&#xf102;" 
d="M327.849 103.388c0 10.8213 2.88086 20.9844 7.91113 29.7559l81.8379 -81.8379c-8.77344 -5.03125 -18.9336 -7.91113 -29.7549 -7.91113c-33.0811 0 -59.9941 26.9141 -59.9941 59.9932zM453.901 205.396c34.7783 -20.9062 58.0986 -59.0068 58.0986 -102.457
c0 -64.9082 -52.0342 -117.889 -116.579 -119.424c-0.015625 0 -0.0283203 -0.00195312 -0.0429688 -0.00195312h-5.56348h-324.41c-14.7373 0 -27.249 10.7949 -29.4082 25.373l-35.6748 240.788c-1.2666 8.5498 1.25391 17.2314 6.90039 23.7783
c5.29199 6.13281 12.8398 9.82422 20.8809 10.2627v35.8125c0 26.2305 21.8975 47.5703 48.8125 47.5703h128.531c11.9414 0 17.5088 4.42676 26.7324 11.7627c11.4746 9.12695 27.1875 21.625 56.7852 21.625h88.9414c30.2021 0 54.7754 -24.5703 54.7754 -54.7744
v-61.9941c8.04102 -0.439453 15.5908 -4.12988 20.8818 -10.2617c5.64746 -6.54688 8.16602 -15.2285 6.89941 -23.7803zM63.8955 283.762h332.989v61.9502c0 10.4658 -8.51758 18.9814 -18.9814 18.9814h-88.9424c-17.0967 0 -24.3984 -5.80762 -34.5029 -13.8438
c-10.9463 -8.70801 -24.5703 -19.5459 -49.0127 -19.5459h-128.531c-6.40039 0 -13.0186 -4.40527 -13.0186 -11.7754v-35.7666zM387.843 11.8223c50.4902 0 91.5654 41.0732 91.5654 91.5654s-41.0752 91.5664 -91.5654 91.5664s-91.5654 -41.0742 -91.5654 -91.5664
s41.0752 -91.5654 91.5654 -91.5654zM387.843 163.382c33.0811 0 59.9941 -26.9141 59.9941 -59.9941c0 -10.8232 -2.88086 -20.9844 -7.91113 -29.7559l-81.8379 81.8389c8.77441 5.03027 18.9336 7.91113 29.7549 7.91113z" />
    <glyph glyph-name="uniF10A" unicode="&#xf10a;" 
d="M470.102 185.995c25 -14.291 41.8984 -41.2021 41.8994 -72.0049c0 -25.3184 -10.4053 -63.8066 -59.9756 -103.388c-2.98047 -2.37988 -5.96289 -4.64648 -8.91602 -6.80762l-0.391602 -2.64062c-2.25098 -15.1914 -15.292 -26.4424 -30.6504 -26.4424h-343.902
c-15.3594 0 -28.3984 11.251 -30.6494 26.4434l-37.1797 250.954c-1.32129 8.91211 1.30469 17.958 7.19043 24.7812c5.51367 6.39258 13.3818 10.2383 21.7627 10.6963v37.3232c0 27.3389 22.8213 49.5781 50.8711 49.5781h133.959
c12.4473 0 18.248 4.61523 27.8613 12.2598c11.958 9.5127 28.334 22.5381 59.1816 22.5381h92.6943c31.4785 0 57.0879 -25.6094 57.0879 -57.0859v-64.6113c8.37988 -0.458008 16.248 -4.30371 21.7627 -10.6953c5.88574 -6.82324 8.51172 -15.8701 7.19043 -24.7822z
M66.5938 287.636l347.046 -0.000976562v64.5654c0 10.9082 -8.875 19.7812 -19.7832 19.7812h-92.6943c-17.8203 0 -25.4297 -6.05078 -35.9609 -14.4268c-11.4082 -9.07617 -25.6084 -20.3701 -51.082 -20.3701h-133.957c-6.6709 0 -13.5684 -4.59082 -13.5684 -12.2734
v-37.2754zM431.832 34.6592c31.6631 25.2822 48.4004 52.7148 48.4023 79.332c0 28.7354 -23.3789 52.1143 -52.1133 52.1143c-16.5908 0 -32.3398 -8.01758 -42.1328 -21.4463l-2.22656 -3.05176l-2.22852 3.05371c-9.79199 13.4277 -25.541 21.4443 -42.1309 21.4443
c-28.7354 0 -52.1143 -23.3789 -52.1143 -52.1143c0 -23.7422 12.6709 -47.334 37.6631 -70.1162c18.6943 -17.043 39.9551 -29.5771 50.9629 -35.5312c2.45508 -1.32715 5.16113 -1.99121 7.86816 -1.99121c2.69043 0 5.38184 0.65625 7.8252 1.96777
c10.083 5.41699 25.249 14.3828 40.2246 26.3389z" />
    <glyph glyph-name="uniF107" unicode="&#xf107;" 
d="M503.978 282.509c6.27539 -7.27441 9.07422 -16.9199 7.66699 -26.4238l-39.6406 -267.555c-2.40039 -16.1963 -16.3027 -28.1924 -32.6777 -28.1924h-366.652c-16.375 0 -30.2764 11.9961 -32.6758 28.1934l-39.6396 267.556
c-1.4082 9.50098 1.39062 19.1455 7.66602 26.4199c5.87793 6.81543 14.2676 10.915 23.2021 11.4033v39.793c0 29.1465 24.3311 52.8584 54.2363 52.8584h142.821c13.2695 0 19.4541 4.91992 29.7031 13.0703c12.749 10.1416 30.208 24.0283 63.0967 24.0283h98.8271
c33.5605 0 60.8633 -27.3027 60.8633 -60.8623v-68.8857c8.93555 -0.489258 17.3242 -4.58887 23.2031 -11.4033zM85.4629 346.789c-7.10938 0 -14.4639 -4.89551 -14.4639 -13.0859v-39.7432h370.002v68.8369c0 11.6299 -9.46289 21.0898 -21.0918 21.0898h-98.8262
c-18.999 0 -27.1123 -6.45117 -38.3398 -15.3809c-12.1631 -9.6748 -27.3027 -21.7168 -54.4609 -21.7168h-142.819z" />
    <glyph glyph-name="uniF10B" unicode="&#xf10b;" 
d="M496.861 212.943c9.62109 -7.52246 15.1387 -18.8398 15.1396 -31.0508v-123.053c0 -32.9453 -28.5195 -59.75 -63.5762 -59.75c-7.91797 0 -15.4951 1.3877 -22.4941 3.88574c-3.95117 -12.1025 -15.292 -20.5996 -28.3965 -20.5996h-331.773
c-14.8174 0 -27.3965 10.8545 -29.5684 25.5107l-35.8682 242.104c-1.27441 8.59668 1.25781 17.3262 6.93652 23.9072c5.31934 6.16797 12.9102 9.87793 20.9951 10.3193v36.0068c0 26.373 22.0166 47.8291 49.0771 47.8291h129.232
c12.0078 0 17.6035 4.45117 26.8779 11.8271c11.5371 9.17676 27.3359 21.7432 57.0947 21.7432h89.4268c30.3672 0 55.0732 -24.7051 55.0732 -55.0723v-62.333c8.08496 -0.442383 15.6748 -4.15234 20.9961 -10.3193c5.67773 -6.58105 8.21094 -15.3096 6.9375 -23.9082
l-4.59668 -31.0215l4.70117 1.16895c3.11914 0.773438 6.31641 1.16504 9.51562 1.16504c8.75391 0 17.373 -2.96973 24.2695 -8.35938zM64.2451 284.262h334.805v62.2891c0 10.5225 -8.56348 19.083 -19.085 19.083h-89.4268
c-17.1904 0 -24.5322 -5.83789 -34.6914 -13.918c-11.0059 -8.75586 -24.7051 -19.6523 -49.2803 -19.6523h-129.233c-6.43359 0 -13.0879 -4.42969 -13.0879 -11.8398v-35.9619zM483.489 58.8408l-0.000976562 123.055c0 2.98926 -1.37598 5.81055 -3.73047 7.65137
c-2.35449 1.83984 -5.42383 2.49219 -8.32422 1.77246l-116.21 -28.9121c-4.32812 -1.07812 -7.36523 -4.96289 -7.36523 -9.42383v-81.7139l-2.09375 0.276367c-1.6709 0.219727 -3.36523 0.333008 -5.03516 0.333008c-18.6787 0 -33.8779 -13.4814 -33.8779 -30.0488
c0 -16.5693 15.1992 -30.0508 33.8779 -30.0508c18.6807 0 33.8779 13.4814 33.8779 30.0508v95.3691l82.1318 20.9766v-69.8945l-2.09082 0.275391c-1.66992 0.219727 -3.36621 0.333008 -5.03613 0.333008c-18.6807 0 -33.877 -13.4805 -33.877 -30.0488
c0 -16.5703 15.1963 -30.0508 33.877 -30.0508c18.6797 0 33.877 13.4805 33.877 30.0508z" />
    <glyph glyph-name="uniF104" unicode="&#xf104;" 
d="M433.565 144.188l13.168 -13.1699c1.33984 -1.34277 2.0918 -3.15723 2.0918 -5.05273c0 -1.89355 -0.751953 -3.70801 -2.0918 -5.04785l-60.9463 -60.9502c-1.33789 -1.33887 -3.1582 -2.08984 -5.05078 -2.08984s-3.70508 0.750977 -5.04297 2.08984l-38.1973 38.1953
c-2.79004 2.79102 -2.79004 7.31152 0 10.1016l13.1709 13.1719c1.33887 1.33887 3.15234 2.08984 5.04492 2.08984c1.8916 0 3.71387 -0.75293 5.05273 -2.08984l19.9717 -19.9766l42.7275 42.7285c2.78906 2.78711 7.3125 2.78711 10.1016 0zM453.901 205.396
c34.7783 -20.9062 58.0986 -59.0068 58.0986 -102.457c0 -64.9082 -52.0342 -117.89 -116.579 -119.425c-0.015625 0 -0.0283203 -0.000976562 -0.0429688 -0.000976562h-5.56348h-324.41c-14.7373 0 -27.249 10.7949 -29.4082 25.373l-35.6748 240.789
c-1.2666 8.55078 1.25391 17.2305 6.90039 23.7773c5.29199 6.13281 12.8398 9.82324 20.8809 10.2627v35.8125c0 26.2305 21.8975 47.5703 48.8125 47.5703h128.531c11.9424 0 17.5088 4.42773 26.7324 11.7627c11.4746 9.12695 27.1875 21.625 56.7852 21.625h88.9414
c30.2021 0 54.7754 -24.5713 54.7754 -54.7744v-61.9951c8.04102 -0.439453 15.5908 -4.12891 20.8818 -10.2627c5.64746 -6.5459 8.16602 -15.2266 6.89941 -23.7783zM63.8955 283.762l332.99 -0.000976562v61.9502c0 10.4668 -8.51562 18.9805 -18.9814 18.9805h-88.9414
c-17.0977 0 -24.3994 -5.80566 -34.5039 -13.8418c-10.9463 -8.70898 -24.5703 -19.5459 -49.0127 -19.5459h-128.531c-6.40039 0 -13.0195 -4.4043 -13.0195 -11.7754v-35.7666zM392.115 12.1543c49.6631 0 89.9209 40.2607 89.9209 89.9219
c0 49.6621 -40.2578 89.9229 -89.9209 89.9229s-89.9219 -40.2607 -89.9219 -89.9229c0 -49.6611 40.2588 -89.9219 89.9219 -89.9219z" />
    <glyph glyph-name="uniF101" unicode="&#xf101;" 
d="M473.056 217.999c5.49707 -6.37012 7.94531 -14.8125 6.71582 -23.1299l-34.6973 -234.19c-2.10156 -14.1777 -14.2715 -24.6787 -28.6055 -24.6787h-320.936c-14.334 0 -26.502 10.501 -28.6035 24.6787l-34.6963 234.19
c-1.2334 8.31738 1.21582 16.7598 6.70898 23.1299c5.14648 5.96484 12.4902 9.55664 20.3096 9.98145v34.8301c0 25.5117 21.2979 46.2666 47.4756 46.2666h17.123v111.442c0 15.1533 12.3271 27.4805 27.4785 27.4805h167.249
c3.71582 0 7.27051 -1.47266 9.89648 -4.09375l55.5762 -55.5801c2.62598 -2.62109 4.09766 -6.18262 4.09766 -9.89355v-36.8818h11.3271c29.375 0 53.2705 -23.8984 53.2705 -53.2754v-60.2949c7.82422 -0.424805 15.165 -4.0166 20.3096 -9.98145zM299.14 417.407
h-145.449v-189.385h204.617v130.213h-41.1357c-9.95508 0 -18.0322 8.07227 -18.0322 18.0352v41.1367zM94.0645 228.022h29.7861v46.2393h-17.123c-6.22559 0 -12.6631 -4.2832 -12.6631 -11.4512v-34.7881zM417.938 228.022v60.2529
c0 10.1816 -8.28613 18.4609 -18.4619 18.4609h-11.3271v-78.7139h29.7891z" />
  </font>
</defs>
</svg>
